# xmcd
#
# Track frame offsets:
#	150
#	22743
#	43617
#	63901
#	90841
#	103825
#	121975
#	142823
#	162580
#	176334
#	195137
#	216255
#	231041
#
# Disc length: 3302 seconds
#
# Revision: 0
# Processed by: cddbd v1.4PL0 Copyright (c) Steve Scherf et al.
# Submitted via: dBpowerAMP V4.0
#
DISCID=9b0ce40d
DTITLE=The Terraplanes - Take It On Down
DYEAR=2000
DGENRE=Blues
TTITLE0=Take It On Down
TTITLE1=I Stand Accused
TTITLE2=Green River
TTITLE3=So Easy
TTITLE4=Twenty Nine Ways
TTITLE5=The Girl Is Bad
TTITLE6=Midnight Train
TTITLE7=Come On Back Home
TTITLE8=Mellow Down Easy
TTITLE9=Pain And Pleasure
TTITLE10=Rock Me Baby
TTITLE11=Right Behind the Wheel
TTITLE12=My Thirty Two
EXTD=
EXTT0=
EXTT1=
EXTT2=
EXTT3=
EXTT4=
EXTT5=
EXTT6=
EXTT7=
EXTT8=
EXTT9=
EXTT10=
EXTT11=
EXTT12=
PLAYORDER=
